<svg xmlns="http://www.w3.org/2000/svg" aria-hidden="true" style="position:absolute;width:0;height:0;overflow:hidden">
    <defs>
        <symbol id="icon-gmail" viewBox="0 0 40 32">
            <path fill="#fff" d="M4.284 31.913c-1.094 0-2.03-.389-2.809-1.168S.307 29.03.305 27.934V4.065c0-1.094.39-2.03 1.17-2.809S3.191.088 4.284.086h31.825c1.094 0 2.031.39 2.811 1.17s1.169 1.716 1.168 2.809v23.869c0 1.094-.389 2.031-1.168 2.811s-1.715 1.169-2.811 1.168H4.284zm15.913-13.924L4.284 8.044v19.891h31.825V8.044l-15.913 9.945zm0-3.978L36.11 4.066H4.285l15.913 9.945zM4.284 8.044z" style="fill:var(--color1, #fff)"/>
        </symbol>
        <symbol id="icon-css" viewBox="0 0 32 32">
            <path fill="#fff" d="M25.445 2.108H2.107v23.338c0 1.179.471 2.307 1.302 3.144s1.966 1.303 3.144 1.303h18.891c1.179 0 2.307-.471 3.144-1.303s1.303-1.966 1.303-3.144V6.555c0-1.178-.471-2.307-1.303-3.144s-1.966-1.302-3.144-1.302zm-2.722 24.77c-.478-.527-.726-1.284-.744-2.27h1.941c.012.875.316 1.309.918 1.309.304 0 .521-.099.651-.291.124-.192.186-.496.186-.918 0-.335-.081-.614-.248-.831a2.041 2.041 0 0 0-.819-.589l-.719-.341c-.639-.304-1.104-.67-1.395-1.092-.279-.422-.416-1.011-.416-1.761 0-.843.248-1.526.732-2.053.502-.527 1.185-.788 2.059-.788.844 0 1.495.26 1.954.775.465.521.713 1.259.732 2.227h-1.867a2.04 2.04 0 0 0-.186-.918c-.105-.211-.31-.316-.62-.316-.546 0-.819.323-.819.974 0 .329.068.583.198.781.192.217.434.385.707.484l.689.304c.713.329 1.222.726 1.538 1.203s.471 1.116.471 1.923c0 .961-.248 1.699-.763 2.214-.509.515-1.209.775-2.115.775s-1.588-.26-2.072-.788l.006-.012zm-6.264 0c-.478-.527-.726-1.284-.744-2.27h1.941c.012.875.316 1.309.918 1.309.304 0 .521-.099.645-.291s.186-.496.186-.918c0-.335-.081-.614-.242-.831a2.041 2.041 0 0 0-.819-.589l-.719-.341c-.639-.304-1.104-.67-1.395-1.092-.279-.422-.416-1.011-.416-1.761 0-.843.248-1.526.732-2.053.502-.527 1.185-.788 2.059-.788.843 0 1.495.26 1.947.775.471.521.713 1.259.738 2.227h-1.867a2.04 2.04 0 0 0-.186-.918c-.105-.211-.31-.316-.62-.316-.546 0-.819.323-.819.974 0 .329.068.583.198.781.192.217.434.385.707.484l.688.304c.713.329 1.222.726 1.538 1.203s.471 1.116.471 1.923c0 .961-.254 1.699-.763 2.214-.763.772-1.209.775-2.115.775s-1.588-.26-2.071-.788l.006-.012zm-6.549.068c-.521-.478-.775-1.191-.775-2.14V20.13c0-.943.273-1.656.819-2.146.552-.484 1.284-.732 2.183-.732.874 0 1.563.248 2.071.744.515.496.775 1.24.775 2.227v.372H12.93v-.36c0-.378-.081-.664-.248-.843-.068-.093-.161-.167-.267-.217s-.217-.074-.335-.068c-.335 0-.571.112-.707.347-.143.323-.205.67-.186 1.017v4.062c0 .85.298 1.278.893 1.29.279 0 .49-.099.633-.298.155-.254.229-.546.217-.844v-.304h2.053v.316c0 .657-.13 1.209-.385 1.65a2.48 2.48 0 0 1-1.061.992 3.35 3.35 0 0 1-1.526.329c-.881 0-1.582-.242-2.096-.719h-.006z" style="fill:var(--color1, #fff)"/>
        </symbol>
        <symbol id="icon-html" viewBox="0 0 32 32">
            <path fill="#fff" d="M6.773 0h1.443v1.425h1.32V0h1.443v4.315H9.536V2.871h-1.32v1.444H6.775L6.774 0zm6.102 1.431h-1.269V0h3.983v1.431h-1.271v2.884h-1.443V1.431zM16.22 0h1.504l.925 1.516L19.573 0h1.504v4.315h-1.436V2.176l-.992 1.535h-.025l-.993-1.533v2.137H16.22V0zm5.575 0h1.444v2.889h2.027v1.427h-3.471V0zM6.728 29.429 4 6.289h24l-2.729 23.137-9.284 2.573-9.259-2.571zm5.516-12.666-.259-2.907h10.86l.253-2.837H8.885l.765 8.583h9.836l-.329 3.68-3.168.856-3.16-.853-.203-2.263H9.775l.397 4.456 5.813 1.613 5.823-1.613.709-7.952.069-.761-10.344-.001z" style="fill:var(--color1, #fff)"/>
        </symbol>
        <symbol id="icon-js" viewBox="0 0 28 32">
            <path fill="#fff" d="M-3.141-1.101H31.06V33.1H-3.141V-1.101z" style="fill:var(--color1, #fff)"/>
            <path d="M17.478 21.761a2.104 2.104 0 0 0 1.902 1.17c.797 0 1.307-.399 1.307-.951 0-.658-.524-.894-1.402-1.278l-.481-.206c-1.39-.592-2.312-1.333-2.312-2.9 0-1.443 1.097-2.543 2.819-2.543a2.85 2.85 0 0 1 2.738 1.542l-1.505.962a1.313 1.313 0 0 0-1.235-.825.83.83 0 0 0-.642.209.835.835 0 0 0-.278.615c0 .577.358.811 1.184 1.17l.481.206c1.636.702 2.56 1.416 2.56 3.023 0 1.733-1.361 2.683-3.19 2.683a3.706 3.706 0 0 1-3.508-1.968l1.563-.91zm-6.8.167c.302.536.577.99 1.239.99.632 0 1.031-.247 1.031-1.209v-6.545h1.925v6.571c0 1.993-1.17 2.9-2.874 2.9a2.986 2.986 0 0 1-2.888-1.756l1.567-.95z" style="fill:var(--color2, #000)"/>
        </symbol>
        <symbol id="icon-logo" viewBox="0 0 44 32">
            <path fill="#f7f0ff" d="M22.772.457v10.44h8.64v1.384h8.469V.457H22.772zm-.457 10.44H18.71V8.302H0v18.854h10.471v4.843h20.941v-1.557h12.702V12.28h-3.776V-.001H22.315v10.897zm17.566 1.841v4.967h-8.469v-4.967h8.469zm-8.469 5.424h8.926v-5.424h3.319v17.248H31.412V18.162zm-.457-.457h-4.407v-4.967h4.407v4.967zm-4.407.457h4.407v11.824h-4.407V18.162zm-.457 0v12.281h4.864v1.1H10.928v-4.386h7.782V11.355h3.605v6.808h3.776zm0-.457h-3.319v-6.351h8.183v.927h-4.864v5.424zM.457 8.76h17.796v2.137h-7.782v15.802H.457V8.759zm17.796 2.594v15.345h-7.325V11.354h7.325z" style="fill:var(--color3, #f7f0ff)"/>
        </symbol>
        <symbol id="icon-node" viewBox="0 0 32 32">
            <path fill="#fff" d="M16 31.848a2.73 2.73 0 0 1-1.266-.321l-4.008-2.299c-.602-.32-.3-.437-.119-.495.812-.262.963-.32 1.807-.787.09-.058.212-.029.302.029l3.074 1.777c.119.058.271.058.361 0l12.023-6.727c.119-.058.18-.175.18-.32V9.281c0-.146-.059-.262-.18-.32L16.151 2.265c-.12-.058-.271-.058-.361 0L3.767 8.961c-.12.058-.181.204-.181.32v13.424c0 .116.061.262.181.32l3.284 1.835c1.778.873 2.892-.146 2.892-1.164V10.447a.36.36 0 0 1 .363-.349h1.536c.181 0 .361.146.361.349v13.248c0 2.301-1.295 3.64-3.555 3.64-.693 0-1.236 0-2.772-.728l-3.163-1.746a2.457 2.457 0 0 1-1.267-2.126V9.311c0-.873.482-1.688 1.266-2.125L14.735.458a2.783 2.783 0 0 1 2.53 0l12.024 6.727a2.444 2.444 0 0 1 1.265 2.125v13.424c0 .873-.481 1.688-1.265 2.126l-12.023 6.725a3.19 3.19 0 0 1-1.266.262zm3.706-9.234c-5.272 0-6.357-2.329-6.357-4.309a.36.36 0 0 1 .361-.349h1.567c.181 0 .331.116.331.291.242 1.543.935 2.3 4.129 2.3 2.531 0 3.616-.553 3.616-1.863 0-.757-.302-1.31-4.248-1.688-3.285-.322-5.333-1.019-5.333-3.552 0-2.359 2.048-3.758 5.484-3.758 3.857 0 5.755 1.282 5.996 4.078a.466.466 0 0 1-.091.262c-.06.058-.149.116-.241.116h-1.567c-.076-.002-.15-.028-.209-.076s-.102-.113-.122-.186c-.363-1.601-1.297-2.126-3.767-2.126-2.773 0-3.104.931-3.104 1.631 0 .844.392 1.106 4.128 1.572 3.706.466 5.454 1.135 5.454 3.638-.031 2.564-2.199 4.02-6.027 4.02z" style="fill:var(--color1, #fff)"/>
        </symbol>
        <symbol id="icon-react" viewBox="0 0 32 32">
            <path fill="#fff" d="M16 13.499A2.484 2.484 0 0 1 18.474 16c0 1.323-1.111 2.448-2.474 2.448S13.526 17.323 13.526 16A2.485 2.485 0 0 1 16 13.499zM9.874 26.585c.834.503 2.659-.265 4.763-2.249a32.008 32.008 0 0 1-1.998-2.514 30.617 30.617 0 0 1-3.175-.476c-.675 2.831-.423 4.776.41 5.239zm.94-7.595-.384-.675c-.146.384-.291.767-.384 1.138.357.079.754.146 1.164.212l-.397-.675zm8.652-1.005L20.538 16l-1.072-1.985c-.397-.701-.82-1.323-1.204-1.945-.715-.04-1.469-.04-2.262-.04s-1.548 0-2.262.04c-.384.622-.807 1.244-1.204 1.945L11.462 16l1.072 1.985c.397.701.82 1.323 1.204 1.945.714.04 1.469.04 2.262.04s1.548 0 2.262-.04c.384-.622.807-1.244 1.204-1.945zM16 9.094c-.251.291-.516.595-.781.953h1.561a15.91 15.91 0 0 0-.781-.953zm0 13.813c.251-.291.516-.595.781-.953H15.22c.265.357.529.662.781.953zm6.113-17.492c-.82-.503-2.646.265-4.75 2.249a32.008 32.008 0 0 1 1.998 2.514c1.085.106 2.157.265 3.175.476.675-2.831.423-4.776-.423-5.239zm-.927 7.595.384.675c.146-.384.291-.767.384-1.138a20.92 20.92 0 0 0-1.164-.212l.397.675zm1.919-9.328c1.945 1.111 2.157 4.035 1.336 7.449 3.361.992 5.782 2.633 5.782 4.869s-2.421 3.877-5.782 4.869c.82 3.413.609 6.337-1.336 7.449-1.932 1.111-4.565-.159-7.105-2.58-2.54 2.421-5.173 3.691-7.118 2.58-1.932-1.111-2.143-4.035-1.323-7.449-3.361-.992-5.782-2.633-5.782-4.869s2.421-3.877 5.782-4.869c-.82-3.414-.609-6.338 1.323-7.449 1.945-1.111 4.578.159 7.118 2.58 2.54-2.421 5.173-3.691 7.105-2.58zM22.721 16c.45.992.847 1.985 1.178 2.99 2.778-.834 4.34-2.024 4.34-2.99s-1.561-2.157-4.34-2.99A29.736 29.736 0 0 1 22.721 16zM9.279 16a29.83 29.83 0 0 1-1.178-2.99c-2.778.834-4.34 2.024-4.34 2.99s1.561 2.157 4.34 2.99A29.736 29.736 0 0 1 9.279 16zm11.907 2.99-.397.675c.41-.066.807-.132 1.164-.212-.093-.37-.238-.754-.384-1.138l-.384.675zm-3.823 5.345c2.104 1.985 3.93 2.752 4.75 2.249.847-.463 1.098-2.408.423-5.239-1.019.212-2.09.37-3.175.476a32.195 32.195 0 0 1-1.998 2.514zM10.814 13.01l.397-.675c-.41.066-.807.132-1.164.212.093.37.238.754.384 1.138l.384-.675zm3.823-5.345c-2.104-1.985-3.93-2.752-4.763-2.249-.834.463-1.085 2.408-.41 5.239a30.35 30.35 0 0 1 3.175-.476 32.195 32.195 0 0 1 1.998-2.514z" style="fill:var(--color1, #fff)"/>
        </symbol>
        <symbol id="icon-svgDownload" viewBox="0 0 32 32">
            <path fill="#fff" d="m16 23.758-9.697-9.697 2.715-2.812 5.042 5.042V.485h3.879v15.806l5.042-5.042 2.715 2.812-9.697 9.697zM4.364 31.515c-1.067 0-1.979-.38-2.738-1.138s-1.139-1.672-1.14-2.74v-5.818h3.879v5.818h23.273v-5.818h3.879v5.818c0 1.067-.38 1.98-1.138 2.74s-1.672 1.14-2.74 1.138H4.366z" style="fill:var(--color1, #fff)"/>
        </symbol>
        <symbol id="icon-git" viewBox="0 0 32 32">
            <path d="M16 0C7.165 0 0 7.345 0 16.405c0 7.249 4.585 13.398 10.942 15.567.8.152 1.093-.355 1.093-.789 0-.391-.015-1.683-.022-3.054-4.451.992-5.391-1.936-5.391-1.936-.728-1.896-1.777-2.4-1.777-2.4-1.451-1.019.11-.997.11-.997 1.607.115 2.453 1.69 2.453 1.69 1.427 2.508 3.743 1.783 4.656 1.364.143-1.06.558-1.784 1.015-2.193-3.553-.415-7.289-1.822-7.289-8.108 0-1.791.625-3.255 1.649-4.403-.167-.413-.714-2.082.155-4.341 0 0 1.344-.441 4.401 1.681A15.03 15.03 0 0 1 16 7.934c1.36.007 2.73.189 4.009.552 3.053-2.122 4.395-1.681 4.395-1.681.871 2.26.323 3.928.157 4.341 1.027 1.149 1.647 2.613 1.647 4.403 0 6.301-3.743 7.689-7.306 8.095.574.509 1.085 1.507 1.085 3.038 0 2.195-.018 3.961-.018 4.502 0 .437.288.948 1.099.787 6.354-2.171 10.933-8.319 10.933-15.565 0-9.06-7.163-16.405-16-16.405z"/>
            <path d="M6.06 23.554c-.035.082-.16.106-.274.05-.116-.053-.181-.165-.144-.247.035-.084.16-.107.276-.051.116.054.182.167.142.248zm.648.741c-.076.072-.225.039-.327-.076-.105-.115-.124-.267-.047-.341.079-.073.223-.039.328.075.105.116.125.268.045.341zm.631.945c-.097.07-.258.005-.357-.141-.098-.147-.098-.321.003-.391.099-.07.257-.007.357.138.098.148.098.323-.003.395zm.864.913c-.088.099-.275.072-.411-.063-.14-.132-.179-.32-.091-.419s.277-.071.414.063c.139.132.181.321.088.42zm1.192.529c-.039.129-.219.187-.4.133-.18-.057-.299-.207-.263-.337.038-.129.219-.191.401-.132.18.056.299.205.261.336zm1.31.099c.004.135-.149.247-.34.249-.191.005-.346-.105-.348-.238 0-.137.151-.247.341-.251s.347.105.347.239zm1.218-.213c.023.132-.109.267-.298.303-.186.035-.358-.047-.381-.177-.023-.135.111-.271.297-.307.189-.033.359.047.383.181z"/>
        </symbol>
        <symbol id="icon-tg" viewBox="0 0 32 32">
            <path d="M30.293 6.139 25.954 26.6c-.327 1.444-1.181 1.803-2.394 1.123l-6.61-4.871-3.19 3.068c-.353.353-.648.648-1.329.648l.475-6.733L25.158 8.764c.533-.475-.115-.738-.828-.263L9.184 18.038l-6.521-2.041c-1.418-.443-1.444-1.418.295-2.099l25.505-9.826c1.181-.443 2.214.263 1.829 2.067z"/>
        </symbol>
        <symbol id="icon-linkedin" viewBox="0 0 32 32">
            <path d="M31.992 32v-.001H32V20.263c0-5.741-1.236-10.164-7.948-10.164-3.227 0-5.392 1.771-6.276 3.449h-.093v-2.913h-6.364v21.364h6.627V21.42c0-2.785.528-5.479 3.977-5.479 3.399 0 3.449 3.179 3.449 5.657v10.401h6.62zM.528 10.636h6.635V32H.528V10.636zM3.843 0C1.722 0 0 1.721 0 3.843s1.721 3.879 3.843 3.879c2.121 0 3.843-1.757 3.843-3.879A3.846 3.846 0 0 0 3.843 0z"/>
        </symbol>
        <symbol id="icon-svgreadmore" viewBox="0 0 31 32">
            <path fill="none" stroke="#fff" style="stroke: var(--color1, #fff)" stroke-linejoin="round" stroke-linecap="butt" stroke-miterlimit="4" stroke-width="1.9394" d="M2.586 26.884c3.163-3.862 5.972-6.053 8.427-6.573s4.792-0.599 7.011-0.236v6.915l10.42-11.284-10.42-10.696v6.573c-4.104 0.032-7.593 1.505-10.468 4.417s-4.53 6.541-4.971 10.884z"></path>
        </symbol>
    </defs>
</svg>